# xmcd CD database file
#
# Track frame offsets:
#	150
#	3852
#	40810
#	71835
#	96107
#	116177
#	159040
#	181917
#	260215
#	280512
#	324907
#
# Disc length: 4663 seconds
#
# Revision: 3
# Processed by: cddbd v1.5.2PL0 Copyright (c) Steve Scherf et al.
# Submitted via: CDex 1.70beta2
#
DISCID=8b12350b
DTITLE=Keith Jarrett - Expectations
DYEAR=1991
DGENRE=Jazz
TTITLE0=Vision
TTITLE1=Common Mama
TTITLE2=The Magician In You
TTITLE3=Roussillon
TTITLE4=Expectations
TTITLE5=Take Me Back
TTITLE6=The Circular Letter (For J.K.)
TTITLE7=Nomad
TTITLE8=Sundance
TTITLE9=Bring Back The Time When (If)
TTITLE10=There Is A Road (God's River)
EXTD=(1972) Rod Evans--Lead Vocals Lee Dorman--Bass Rhino--Guitars Bobby Caldwell--Drums YEAR: 1991
EXTT0=
EXTT1=
EXTT2=
EXTT3=
EXTT4=
EXTT5=
EXTT6=
EXTT7=
EXTT8=
EXTT9=
EXTT10=
PLAYORDER=
